<?xml version="1.0" encoding="UTF-8"?> <svg xmlns="http://www.w3.org/2000/svg" width="138" height="138" viewBox="0 0 138 138" fill="none"><rect x="3.5" y="3.5" width="131" height="131" rx="16.5" fill="white"></rect><rect x="3.5" y="3.5" width="131" height="131" rx="16.5" stroke="#0056F9" stroke-width="7"></rect><path d="M76.889 70.189C76.8594 71.7413 76.3696 73.2497 75.4817 74.5233C74.5938 75.7969 73.3478 76.7781 71.9016 77.3427C70.4554 77.9073 68.8741 78.0298 67.3582 77.6947C65.8423 77.3596 64.46 76.5819 63.3865 75.4603C62.3131 74.3387 61.5968 72.9236 61.3285 71.3945C61.0602 69.8653 61.252 68.2909 61.8795 66.8709C62.507 65.4508 63.5419 64.2491 64.8532 63.4179C66.1645 62.5867 67.693 62.1636 69.2451 62.2021C71.3074 62.2785 73.259 63.1551 74.686 64.6461C76.1129 66.1371 76.9031 68.1253 76.889 70.189Z" fill="#0056F9"></path><path d="M82.5383 45.6411H55.9562C53.3259 45.6411 50.8033 46.686 48.9435 48.5459C47.0836 50.4058 46.0387 52.9283 46.0387 55.5586V82.7385C46.0387 84.0409 46.2952 85.3306 46.7936 86.5338C47.292 87.737 48.0225 88.8303 48.9435 89.7513C49.8644 90.6722 50.9577 91.4027 52.1609 91.9011C53.3642 92.3995 54.6538 92.656 55.9562 92.656H82.5383C83.8407 92.656 85.1303 92.3995 86.3336 91.9011C87.5368 91.4027 88.6301 90.6722 89.551 89.7513C90.472 88.8303 91.2025 87.737 91.7009 86.5338C92.1993 85.3306 92.4558 84.0409 92.4558 82.7385V55.6076C92.461 54.3015 92.2083 53.0071 91.7124 51.7988C91.2164 50.5905 90.4868 49.4919 89.5655 48.5661C88.6442 47.6402 87.5493 46.9053 86.3434 46.4033C85.1375 45.9014 83.8445 45.6424 82.5383 45.6411ZM69.2448 83.4833C66.6134 83.5427 64.0239 82.8167 61.8069 81.398C59.5899 79.9792 57.8459 77.9321 56.7974 75.5178C55.749 73.1035 55.4437 70.4316 55.9205 67.843C56.3973 65.2545 57.6345 62.8667 59.4743 60.9844C61.3142 59.1021 63.6731 57.8106 66.2501 57.2749C68.8271 56.7392 71.5053 56.9834 73.9429 57.9765C76.3805 58.9695 78.4669 60.6664 79.9359 62.8504C81.4049 65.0345 82.1898 67.6067 82.1904 70.2388C82.2105 71.9586 81.8915 73.6655 81.2517 75.262C80.6119 76.8584 79.6638 78.3132 78.4616 79.5432C77.2594 80.7731 75.8267 81.7542 74.2452 82.4302C72.6638 83.1063 70.9646 83.4641 69.2448 83.4833ZM83.631 56.9992C83.3077 56.9992 82.9876 56.9348 82.6895 56.8096C82.3914 56.6844 82.1213 56.501 81.8949 56.2701C81.6686 56.0392 81.4906 55.7655 81.3714 55.4649C81.2522 55.1644 81.1941 54.8431 81.2007 54.5198C81.2007 53.8622 81.4619 53.2316 81.9268 52.7666C82.3918 52.3017 83.0225 52.0404 83.68 52.0404C84.3376 52.0404 84.9682 52.3017 85.4332 52.7666C85.8982 53.2316 86.1594 53.8622 86.1594 54.5198C86.1691 54.8698 86.1031 55.2178 85.9659 55.54C85.8286 55.8621 85.6234 56.1508 85.3642 56.3863C85.105 56.6217 84.798 56.7984 84.4642 56.9042C84.1303 57.01 83.7776 57.0424 83.4301 56.9992H83.631Z" fill="#0056F9"></path><path d="M69.245 20.0006C56.2496 19.9356 43.7606 25.0357 34.5254 34.179C25.2903 43.3222 20.0656 55.7596 20.0006 68.755C19.9356 81.7504 25.0357 94.2395 34.179 103.475C43.3222 112.71 55.7596 117.934 68.755 117.999C75.1897 118.032 81.5677 116.796 87.5249 114.363C93.4821 111.931 98.9018 108.348 103.475 103.821C108.047 99.2938 111.684 93.9102 114.176 87.9776C116.668 82.045 117.967 75.6797 117.999 69.245C118.032 62.8103 116.796 56.4323 114.363 50.4751C111.931 44.5179 108.348 39.0982 103.821 34.5254C99.2938 29.9527 93.9102 26.3164 87.9776 23.8242C82.045 21.3321 75.6797 20.0328 69.245 20.0006ZM99.0023 82.2396C99.016 84.4379 98.5931 86.617 97.7584 88.6507C96.9236 90.6843 95.6934 92.532 94.1392 94.0867C92.585 95.6414 90.7376 96.8721 88.7042 97.7075C86.6708 98.5429 84.4918 98.9663 82.2935 98.9533H56.2063C54.0084 98.9657 51.8298 98.5419 49.7968 97.7067C47.7637 96.8714 45.9165 95.6412 44.3621 94.0872C42.8077 92.5333 41.577 90.6865 40.7411 88.6537C39.9052 86.6209 39.4809 84.4424 39.4926 82.2445V56.1524C39.4789 53.9541 39.9017 51.775 40.7365 49.7413C41.5713 47.7077 42.8015 45.86 44.3557 44.3053C45.9099 42.7506 47.7573 41.5199 49.7907 40.6845C51.8241 39.8491 54.0031 39.4257 56.2014 39.4387H82.2935C84.4914 39.4257 86.67 39.849 88.7031 40.6841C90.7361 41.5192 92.5833 42.7494 94.1374 44.3036C95.6916 45.8577 96.9218 47.7049 97.7569 49.7379C98.592 51.771 99.0153 53.9496 99.0023 56.1475V82.2396Z" fill="#0056F9"></path></svg> 