<?xml version="1.0" encoding="UTF-8"?> <svg xmlns="http://www.w3.org/2000/svg" width="138" height="138" viewBox="0 0 138 138" fill="none"><rect x="3.5" y="3.5" width="131" height="131" rx="16.5" fill="white"></rect><rect x="3.5" y="3.5" width="131" height="131" rx="16.5" stroke="#0056F9" stroke-width="7"></rect><path d="M69 20C59.5065 20 50.2262 22.8738 42.3326 28.258C34.4391 33.6422 28.2868 41.2949 24.6538 50.2485C21.0208 59.2021 20.0702 69.0543 21.9223 78.5594C23.7744 88.0645 28.346 96.7954 35.0589 103.648C41.7718 110.501 50.3246 115.168 59.6357 117.058C68.9468 118.949 78.598 117.979 87.3688 114.27C96.1397 110.561 103.636 104.281 108.911 96.2229C114.185 88.1649 117 78.6913 117 69C116.987 56.0084 111.926 43.5526 102.927 34.3661C93.9281 25.1796 81.7265 20.013 69 20ZM97.5072 57.7937V60.9591C97.5073 61.2014 97.4598 61.4412 97.3676 61.6644C97.2753 61.8876 97.1402 62.0897 96.9702 62.2587C96.8001 62.4277 96.5987 62.5602 96.3776 62.6484C96.1566 62.7366 95.9204 62.7786 95.6832 62.7721C90.6154 62.4054 85.7672 60.5164 81.7488 57.3429V80.5101C81.7482 83.0742 81.247 85.6125 80.2745 87.9766C79.302 90.3407 77.8777 92.4833 76.0848 94.2791C74.2759 96.1197 72.1263 97.5745 69.7612 98.5588C67.3961 99.543 64.8628 100.037 62.3088 100.012C57.1725 100.003 52.2429 97.9457 48.5712 94.2791C46.2355 91.8752 44.5531 88.8919 43.6896 85.6228C42.8261 82.3536 42.8112 78.9114 43.6464 75.6346C44.4096 72.4888 45.9504 69.5978 48.1248 67.2409C49.7464 65.2176 51.7904 63.5899 54.1075 62.4767C56.4246 61.3636 58.956 60.7932 61.5168 60.8072H65.4528V69.1519C65.4546 69.3942 65.4057 69.6342 65.3094 69.8557C65.2131 70.0773 65.0717 70.2753 64.8946 70.4367C64.7175 70.598 64.5086 70.719 64.2821 70.7915C64.0556 70.864 63.8165 70.8863 63.5808 70.8571C61.2955 70.1563 58.8329 70.3888 56.7122 71.5054C54.5915 72.622 52.9783 74.5356 52.2127 76.8427C51.4471 79.1498 51.5889 81.6703 52.6083 83.8727C53.6276 86.0752 55.4448 87.7876 57.6768 88.649C58.9728 89.4085 60.4224 89.8544 61.9104 89.9573C63.0624 90.0063 64.2144 89.8593 65.3088 89.5065C67.1366 88.8785 68.7265 87.6834 69.8565 86.088C70.9864 84.4926 71.5999 82.5767 71.6112 80.6081V38.3946C71.6106 38.1632 71.6547 37.9339 71.741 37.7199C71.8273 37.5059 71.9542 37.3114 72.1142 37.1476C72.2743 36.9837 72.4645 36.8537 72.6739 36.765C72.8832 36.6763 73.1077 36.6306 73.3344 36.6306H80.1264C80.5681 36.63 80.9931 36.8025 81.3138 37.1125C81.6344 37.4225 81.8262 37.8464 81.8496 38.2966C82.098 40.4584 82.771 42.5468 83.8283 44.437C84.8857 46.3271 86.3056 47.9801 88.0032 49.2971C90.2981 51.0557 93.0236 52.134 95.88 52.4135C96.3078 52.4508 96.7079 52.6452 97.0062 52.9605C97.3045 53.2758 97.4808 53.6907 97.5024 54.1285L97.5072 57.7937Z" fill="#0056F9"></path></svg> 